<svg width="30" height="30" viewBox="0 0 30 30" fill="none" xmlns="http://www.w3.org/2000/svg">
<path d="M23.3876 24.375C22.3501 25.925 21.2501 27.4375 19.5751 27.4625C17.9001 27.5 17.3626 26.475 15.4626 26.475C13.5501 26.475 12.9626 27.4375 11.3751 27.5C9.73755 27.5625 8.50005 25.85 7.45005 24.3375C5.31255 21.25 3.67505 15.5625 5.87505 11.7375C6.96255 9.8375 8.91255 8.6375 11.0251 8.6C12.6251 8.575 14.1501 9.6875 15.1376 9.6875C16.1126 9.6875 17.9626 8.35 19.9001 8.55C20.7126 8.5875 22.9876 8.875 24.4501 11.025C24.3376 11.1 21.7376 12.625 21.7626 15.7875C21.8001 19.5625 25.0751 20.825 25.1126 20.8375C25.0751 20.925 24.5876 22.6375 23.3876 24.375ZM16.2501 4.375C17.1626 3.3375 18.6751 2.55 19.9251 2.5C20.0876 3.9625 19.5001 5.4375 18.6251 6.4875C17.7626 7.55 16.3376 8.375 14.9376 8.2625C14.7501 6.825 15.4501 5.325 16.2501 4.375Z" fill="#353333"/>
</svg>
