<svg width="22" height="18" viewBox="0 0 22 18" fill="none" xmlns="http://www.w3.org/2000/svg">
<path d="M4.75 4.75H8.75" stroke="black" stroke-width="1.5" stroke-linecap="round" stroke-linejoin="round"/>
<path d="M19.583 5.75H16.981C15.196 5.75 13.75 7.093 13.75 8.75C13.75 10.407 15.197 11.75 16.98 11.75H19.583C19.667 11.75 19.708 11.75 19.743 11.748C20.283 11.715 20.713 11.316 20.748 10.815C20.75 10.783 20.75 10.744 20.75 10.667V6.833C20.75 6.756 20.75 6.717 20.748 6.685C20.712 6.184 20.283 5.785 19.743 5.752C19.709 5.75 19.667 5.75 19.583 5.75Z" stroke="black" stroke-width="1.5"/>
<path d="M19.715 5.75C19.637 3.878 19.387 2.73 18.578 1.922C17.407 0.75 15.521 0.75 11.75 0.75H8.75C4.979 0.75 3.093 0.75 1.922 1.922C0.75 3.093 0.75 4.979 0.75 8.75C0.75 12.521 0.75 14.407 1.922 15.578C3.093 16.75 4.979 16.75 8.75 16.75H11.75C15.521 16.75 17.407 16.75 18.578 15.578C19.387 14.77 19.638 13.622 19.715 11.75" stroke="black" stroke-width="1.5"/>
<path d="M16.7412 8.75H16.7512" stroke="black" stroke-width="2" stroke-linecap="round" stroke-linejoin="round"/>
</svg>
