<svg width="32" height="32" viewBox="0 0 32 32" fill="none" xmlns="http://www.w3.org/2000/svg">
<path d="M9.86949 6C9.33349 6.928 9.33349 8.17333 9.33349 10.6667V14.7027C9.90682 14.6667 10.5522 14.6667 11.2468 14.6667H20.7535C21.4468 14.6667 22.0935 14.6667 22.6668 14.7027V10.6667C22.6668 8.17333 22.6668 6.928 22.1308 6C21.7798 5.39197 21.2749 4.88706 20.6668 4.536C19.7388 4 18.4935 4 16.0002 4C13.5068 4 12.2615 4 11.3335 4.536C10.7255 4.88706 10.2206 5.39197 9.86949 6ZM8.33349 21.3213C7.66416 21.2947 7.25882 21.204 6.98149 20.9013C6.58549 20.4693 6.63749 19.8693 6.74149 18.668C6.81482 17.8013 6.98282 17.2173 7.36416 16.7813C8.04682 16 9.14416 16 11.3402 16H20.6602C22.8562 16 23.9535 16 24.6362 16.7813C25.0175 17.216 25.1855 17.8 25.2602 18.668C25.3628 19.868 25.4148 20.4693 25.0188 20.9013C24.7415 21.204 24.3362 21.2947 23.6668 21.3213V28C23.6668 28.2652 23.5615 28.5196 23.3739 28.7071C23.1864 28.8946 22.932 29 22.6668 29C22.4016 29 22.1473 28.8946 21.9597 28.7071C21.7722 28.5196 21.6668 28.2652 21.6668 28V21.3333H10.3335V28C10.3335 28.2652 10.2281 28.5196 10.0406 28.7071C9.85306 28.8946 9.59871 29 9.33349 29C9.06827 29 8.81392 28.8946 8.62638 28.7071C8.43885 28.5196 8.33349 28.2652 8.33349 28V21.3213Z" fill="black"/>
</svg>
