<svg width="23" height="23" viewBox="0 0 23 23" fill="none" xmlns="http://www.w3.org/2000/svg">
<path fill-rule="evenodd" clip-rule="evenodd" d="M2.14076 4.17547C1.99558 4.34794 1.91614 4.56624 1.91651 4.79168V16.2917C1.91651 17.0542 2.21941 17.7854 2.75857 18.3246C3.29774 18.8638 4.02901 19.1667 4.79151 19.1667H18.2082C18.9707 19.1667 19.7019 18.8638 20.2411 18.3246C20.7803 17.7854 21.0832 17.0542 21.0832 16.2917V4.80126C21.0841 4.65846 21.0533 4.51723 20.9929 4.38779C20.9326 4.25836 20.8443 4.14394 20.7343 4.0528C20.564 3.91167 20.3499 3.8341 20.1287 3.83334H2.87484C2.73489 3.83313 2.5966 3.86366 2.46975 3.92278C2.3429 3.9819 2.23059 4.06816 2.14076 4.17547ZM3.83317 7.10509V16.2917C3.83317 16.5458 3.93414 16.7896 4.11386 16.9693C4.29358 17.149 4.53734 17.25 4.79151 17.25H18.2082C18.4623 17.25 18.7061 17.149 18.8858 16.9693C19.0655 16.7896 19.1665 16.5458 19.1665 16.2917V7.10509L12.1774 14.0942C11.9977 14.2739 11.754 14.3748 11.4998 14.3748C11.2457 14.3748 11.002 14.2739 10.8223 14.0942L3.83317 7.10509Z" fill="#353333"/>
</svg>
