<svg width="18" height="19" viewBox="0 0 18 19" fill="none" xmlns="http://www.w3.org/2000/svg">
<path d="M12.5156 2.56116C11.0081 2.56116 9.70875 3.2861 9 4.487C8.29125 3.2861 6.99188 2.56116 5.48438 2.56116C4.40319 2.56248 3.36666 2.99763 2.60214 3.77118C1.83763 4.54472 1.40755 5.59349 1.40625 6.68745C1.40625 8.72143 2.67188 10.8472 5.16094 13.0042C6.3102 13.9938 7.5511 14.8688 8.86641 15.6173C8.90745 15.6397 8.95336 15.6515 9 15.6515C9.04664 15.6515 9.09255 15.6397 9.13359 15.6173C10.4489 14.8688 11.6898 13.9938 12.8391 13.0042C15.3281 10.8472 16.5938 8.72143 16.5938 6.68745C16.5924 5.59349 16.1624 4.54472 15.3979 3.77118C14.6333 2.99763 13.5968 2.56248 12.5156 2.56116ZM9 15.0411C8.01562 14.4748 1.96875 10.8187 1.96875 6.68745C1.96987 5.74438 2.34062 4.84026 2.99969 4.17341C3.65875 3.50656 4.55232 3.13143 5.48438 3.1303C6.96867 3.1303 8.21602 3.93493 8.73984 5.22973C8.76103 5.28192 8.79708 5.32657 8.8434 5.35798C8.88973 5.3894 8.94423 5.40617 9 5.40617C9.05577 5.40617 9.11027 5.3894 9.1566 5.35798C9.20292 5.32657 9.23897 5.28192 9.26016 5.22973C9.78398 3.93493 11.0313 3.1303 12.5156 3.1303C13.4477 3.13143 14.3412 3.50656 15.0003 4.17341C15.6594 4.84026 16.0301 5.74438 16.0312 6.68745C16.0312 10.8137 9.98438 14.4748 9 15.0411Z" fill="#716E6E"/>
</svg>
