<svg width="95" height="95" viewBox="0 0 95 95" fill="none" xmlns="http://www.w3.org/2000/svg">
<path d="M15.8335 71.25C15.8335 67.0507 17.5016 63.0235 20.471 60.0541C23.4403 57.0848 27.4676 55.4167 31.6668 55.4167H63.3335C67.5328 55.4167 71.56 57.0848 74.5293 60.0541C77.4987 63.0235 79.1668 67.0507 79.1668 71.25C79.1668 73.3496 78.3328 75.3633 76.8481 76.8479C75.3634 78.3326 73.3498 79.1667 71.2502 79.1667H23.7502C21.6505 79.1667 19.6369 78.3326 18.1522 76.8479C16.6676 75.3633 15.8335 73.3496 15.8335 71.25Z" stroke="#716E6E" stroke-width="2" stroke-linejoin="round"/>
<path d="M47.5 39.5833C54.0584 39.5833 59.375 34.2667 59.375 27.7083C59.375 21.1499 54.0584 15.8333 47.5 15.8333C40.9416 15.8333 35.625 21.1499 35.625 27.7083C35.625 34.2667 40.9416 39.5833 47.5 39.5833Z" stroke="#716E6E" stroke-width="2"/>
</svg>
