<svg width="30" height="30" viewBox="0 0 30 30" fill="none" xmlns="http://www.w3.org/2000/svg">
<path d="M26.2503 26.25L20.8215 20.8212M20.8215 20.8212C21.7501 19.8926 22.4867 18.7902 22.9893 17.5769C23.4918 16.3636 23.7505 15.0633 23.7505 13.75C23.7505 12.4367 23.4919 11.1364 22.9893 9.92307C22.4867 8.70978 21.7501 7.60736 20.8215 6.67875C19.8929 5.75014 18.7905 5.01352 17.5772 4.51096C16.3639 4.0084 15.0635 3.74974 13.7503 3.74974C12.437 3.74974 11.1366 4.0084 9.92332 4.51096C8.71004 5.01352 7.60762 5.75014 6.67901 6.67875C4.8036 8.55416 3.75 11.0978 3.75 13.75C3.75 16.4022 4.8036 18.9458 6.67901 20.8212C8.55442 22.6967 11.098 23.7503 13.7503 23.7503C16.4025 23.7503 18.9461 22.6967 20.8215 20.8212Z" stroke="#716E6E" stroke-linecap="round" stroke-linejoin="round"/>
</svg>
