<svg width="32" height="32" viewBox="0 0 32 32" fill="none" xmlns="http://www.w3.org/2000/svg">
<path d="M6.66699 12.2V9.33332C6.66699 7.86666 7.86699 6.66666 9.33366 6.66666H22.667C24.1337 6.66666 25.3337 7.86666 25.3337 9.33332V12.2133C23.787 12.76 22.667 14.2267 22.667 15.96V18.6667H9.33366V15.9467C9.33366 14.2267 8.21366 12.7467 6.66699 12.2ZM26.667 13.3333C25.2003 13.3333 24.0003 14.5333 24.0003 16V20H8.00033V16C8.00033 15.2927 7.71937 14.6145 7.21928 14.1144C6.71918 13.6143 6.0409 13.3333 5.33366 13.3333C4.62641 13.3333 3.94814 13.6143 3.44804 14.1144C2.94794 14.6145 2.66699 15.2927 2.66699 16V22.6667C2.66699 24.1333 3.86699 25.3333 5.33366 25.3333V28H8.00033V25.3333H24.0003V28H26.667V25.3333C28.1337 25.3333 29.3337 24.1333 29.3337 22.6667V16C29.3337 14.5333 28.1337 13.3333 26.667 13.3333Z" fill="black"/>
</svg>
