<svg width="32" height="32" viewBox="0 0 32 32" fill="none" xmlns="http://www.w3.org/2000/svg">
<path d="M8.00033 26.6667L10.0003 21.6667C10.2003 21.1556 10.5225 20.7498 10.967 20.4493C11.4114 20.1489 11.9114 19.9991 12.467 20H14.667V14.6333C11.267 14.5222 8.41677 14.0222 6.11633 13.1333C3.81588 12.2445 2.6661 11.2 2.66699 10C2.66699 8.71112 3.96699 7.61112 6.56699 6.70001C9.16699 5.7889 12.3114 5.33334 16.0003 5.33334C19.7114 5.33334 22.8617 5.7889 25.451 6.70001C28.0403 7.61112 29.3345 8.71112 29.3337 10C29.3337 11.2 28.1834 12.2445 25.883 13.1333C23.5825 14.0222 20.7328 14.5222 17.3337 14.6333V20H19.5337C20.067 20 20.5617 20.1502 21.0177 20.4507C21.4737 20.7511 21.8012 21.1565 22.0003 21.6667L24.0003 26.6667H21.3337L19.7337 22.6667H12.267L10.667 26.6667H8.00033Z" fill="black"/>
</svg>
